<svg xmlns="http://www.w3.org/2000/svg" viewBox="0 0 452.94 99.78"><defs><style>.cls-1{fill:#020304;}.cls-2{fill:#e41c20;}.cls-3{fill:#fff;}</style></defs><title>Asset 1</title><g id="Layer_2" data-name="Layer 2"><g id="Layer_1-2" data-name="Layer 1"><rect class="cls-1" width="452.94" height="99.78"/><rect class="cls-2" x="174.64" y="11.44" width="263.74" height="78.64"/><path class="cls-3" d="M238.35,82.83H223.49L198.63,45.19V82.83H183.77v-61h14.86l24.86,37.81V21.81h14.86Z"/><path class="cls-3" d="M264,33.72V46.06h19.9V57.53H264v13.4h22.51v11.9H249.13v-61h37.38V33.72Z"/><path class="cls-3" d="M380.13,21.81l-15.91,61h-18l-9.74-40.16L326.41,82.83h-18l-15.48-61h15.91l8.78,44.42L328.5,21.81h16.34l10.43,44.42,8.86-44.42Z"/><path class="cls-3" d="M397.69,81.27a19.64,19.64,0,0,1-8.48-6.43,17.59,17.59,0,0,1-3.34-10.26h15.82A7.64,7.64,0,0,0,404,69.75a7.52,7.52,0,0,0,5.21,1.78A8.21,8.21,0,0,0,414.47,70a5.1,5.1,0,0,0,1.91-4.21,5.05,5.05,0,0,0-1.52-3.75,12.46,12.46,0,0,0-3.74-2.43,59.76,59.76,0,0,0-6.3-2.17,68.12,68.12,0,0,1-9.65-3.65,17.8,17.8,0,0,1-6.44-5.39,15.07,15.07,0,0,1-2.69-9.3q0-8.52,6.17-13.35t16.08-4.82q10.08,0,16.26,4.82t6.6,13.43H415.08a6.34,6.34,0,0,0-2.18-4.65,7.64,7.64,0,0,0-5.13-1.69,6.4,6.4,0,0,0-4.34,1.43,5.16,5.16,0,0,0-1.65,4.13A5.11,5.11,0,0,0,404.56,43a45.24,45.24,0,0,0,8.69,3.56,79,79,0,0,1,9.6,3.83,18.37,18.37,0,0,1,6.39,5.3,14.17,14.17,0,0,1,2.7,8.95,17.64,17.64,0,0,1-2.65,9.48,18.6,18.6,0,0,1-7.7,6.78,26.34,26.34,0,0,1-11.91,2.52A31.33,31.33,0,0,1,397.69,81.27Z"/><path class="cls-3" d="M18.06,79.51a14.66,14.66,0,0,1-4.15-10.82v-35a14.24,14.24,0,0,1,15-15,14.24,14.24,0,0,1,15,15V41.1H34.47V33.71a6,6,0,0,0-1.54-4.32,5.17,5.17,0,0,0-4-1.63,5.18,5.18,0,0,0-4,1.63,6,6,0,0,0-1.53,4.32v35A6.08,6.08,0,0,0,25,73a5.21,5.21,0,0,0,4,1.62,5.2,5.2,0,0,0,4-1.62,6.08,6.08,0,0,0,1.54-4.33v-9h9.37v9a14.22,14.22,0,0,1-15,15A14.64,14.64,0,0,1,18.06,79.51Z"/><path class="cls-3" d="M56.37,79.46a14.81,14.81,0,0,1-4.24-11V34a14.84,14.84,0,0,1,4.24-11,15.09,15.09,0,0,1,11.09-4.19,15.13,15.13,0,0,1,11.09,4.19,14.87,14.87,0,0,1,4.23,11V68.42a14.84,14.84,0,0,1-4.23,11,15.09,15.09,0,0,1-11.09,4.19A15.05,15.05,0,0,1,56.37,79.46ZM71.69,73a6.43,6.43,0,0,0,1.54-4.6V34a6.39,6.39,0,0,0-1.54-4.59,6.32,6.32,0,0,0-8.47,0A6.43,6.43,0,0,0,61.69,34V68.42A6.47,6.47,0,0,0,63.22,73a6.35,6.35,0,0,0,8.47,0Z"/><path class="cls-3" d="M92.43,19.65h15q6.85,0,10.91,4.1t4,11v33q0,6.85-4,11t-10.91,4.1h-15Zm14.51,54.09a5.34,5.34,0,0,0,5.86-5.86V34.52a5.84,5.84,0,0,0-1.53-4.32,5.88,5.88,0,0,0-4.33-1.53h-5V73.74Z"/><path class="cls-3" d="M135.33,79.46a14.84,14.84,0,0,1-4.23-11V34a14.87,14.87,0,0,1,4.23-11,16.77,16.77,0,0,1,22.18,0,14.87,14.87,0,0,1,4.23,11V68.42a14.84,14.84,0,0,1-4.23,11,16.77,16.77,0,0,1-22.18,0ZM150.66,73a6.47,6.47,0,0,0,1.53-4.6V34a6.43,6.43,0,0,0-1.53-4.59,6.33,6.33,0,0,0-8.48,0A6.43,6.43,0,0,0,140.65,34V68.42a6.47,6.47,0,0,0,1.53,4.6,6.36,6.36,0,0,0,8.48,0Z"/></g></g></svg>